<svg version="1.1" id="Layer_1" xmlns="http://www.w3.org/2000/svg" xmlns:xlink="http://www.w3.org/1999/xlink" x="0px" y="0px"
	 width="100%" viewBox="0 0 120 67" enable-background="new 0 0 120 67" xml:space="preserve">
<path fill="#FDF5EE" opacity="1.000000" stroke="none" 
	d="
M73.000000,68.000000 
	C49.666672,68.000000 26.833117,67.953896 4.000334,68.065674 
	C1.499184,68.077919 0.919479,67.501266 0.933939,64.999634 
	C1.051466,44.666981 1.051457,24.333057 0.933947,4.000406 
	C0.919489,1.498865 1.500069,0.929692 4.000131,0.935773 
	C41.999901,1.028194 80.000031,1.028186 117.999802,0.935787 
	C120.499687,0.929708 121.080536,1.498618 121.066071,4.000335 
	C120.948532,24.332985 120.948547,44.666908 121.066048,64.999557 
	C121.080498,67.501007 120.502769,68.090157 117.999443,68.067184 
	C103.167343,67.931015 88.333351,68.000000 73.000000,68.000000 
z"/>
<path fill="#FF631A" opacity="1.000000" stroke="none" 
	d="
M36.472275,41.697166 
	C33.744968,41.186592 31.690117,40.120083 29.740347,38.827469 
	C26.353373,36.582066 22.758463,35.846100 18.858891,37.296288 
	C17.818209,37.683304 16.552469,38.694290 15.870247,37.155197 
	C15.045477,35.294514 16.913345,35.041656 18.010965,34.599945 
	C22.127138,32.943501 26.270002,33.044109 29.868565,35.693802 
	C35.452827,39.805607 40.632645,39.736294 46.322636,35.733006 
	C51.151123,32.335842 56.479542,32.776268 61.251331,36.118828 
	C66.436867,39.751217 71.279343,39.721577 76.398079,36.049622 
	C80.662697,32.990368 85.336060,32.778393 90.074089,35.037052 
	C90.943192,35.451363 91.915962,36.032131 91.187767,37.265102 
	C90.666786,38.147221 89.849449,38.047054 89.027328,37.659794 
	C84.225998,35.398140 80.088608,36.958302 75.958153,39.640659 
	C71.184311,42.740841 66.124870,42.755123 61.460796,39.478096 
	C56.144901,35.743103 51.105499,35.718178 45.823872,39.418350 
	C43.183102,41.268402 40.162827,42.168976 36.472275,41.697166 
z"/>
<path fill="#FF6721" opacity="1.000000" stroke="none" 
	d="
M75.951134,51.034843 
	C70.592316,54.021465 65.728775,53.687481 61.054520,50.460842 
	C56.101200,47.041561 51.245834,47.015366 46.247616,50.455257 
	C41.032444,54.044464 35.682312,53.990589 30.401075,50.490467 
	C26.587847,47.963268 22.616251,46.815292 18.202009,48.882210 
	C17.248865,49.328514 16.218216,49.595592 15.695769,48.344383 
	C15.111012,46.943943 16.443916,46.668720 17.231628,46.320721 
	C21.637985,44.374054 26.082895,44.352001 30.047045,47.199570 
	C35.452816,51.082687 40.564346,51.221512 46.073227,47.382210 
	C50.924793,44.001003 56.160755,44.060284 61.028515,47.390797 
	C66.529945,51.154858 71.631271,51.249004 76.999710,47.094406 
	C80.892975,44.081432 85.358719,44.220570 89.777374,46.054581 
	C90.765343,46.464649 92.247681,46.897453 91.481003,48.471401 
	C90.938461,49.585228 89.877647,49.303730 88.891838,48.852676 
	C84.263222,46.734875 80.163528,48.064236 75.951134,51.034843 
z"/>
<path fill="#FF6923" opacity="1.000000" stroke="none" 
	d="
M59.424465,23.366152 
	C65.601639,27.968826 71.370598,28.590651 77.581741,24.001152 
	C81.340309,21.223896 85.741341,21.430092 89.975182,23.295279 
	C90.806259,23.661402 92.074020,24.078102 91.631973,25.369930 
	C91.207924,26.609150 90.152802,26.390608 89.171211,25.931141 
	C84.570595,23.777645 80.496452,25.055199 76.491066,27.666447 
	C71.372086,31.003685 66.132408,31.015930 61.054348,27.519993 
	C55.895344,23.968328 50.938263,24.070801 45.785042,27.662457 
	C40.910366,31.059977 35.744843,30.986183 30.798916,27.741024 
	C26.810534,25.124140 22.776789,23.745991 18.148815,25.908737 
	C17.216152,26.344589 16.124304,26.681005 15.679698,25.357496 
	C15.234708,24.032846 16.503792,23.666029 17.328735,23.296209 
	C21.757668,21.310734 26.212463,21.417046 30.176588,24.218004 
	C35.618015,28.062788 40.763077,28.282125 46.246792,24.339327 
	C50.187862,21.505682 54.590572,21.257801 59.424465,23.366152 
z"/>
</svg>